{
  "accessors": [
    {
      "bufferView": 2,
      "componentType": 5126,
      "count": 2265,
      "max": [
        0.5947513580322266,
        0.5034269690513611,
        1.0181777477264404
      ],
      "min": [
        -0.6645388007164001,
        -0.5351167321205139,
        -0.008970909751951694
      ],
      "type": "VEC3"
    },
    {
      "bufferView": 2,
      "byteOffset": 27180,
      "componentType": 5126,
      "count": 2265,
      "max": [
        0.9996165037155151,
        0.9990739822387695,
        0.9999290108680725
      ],
      "min": [
        -0.9999366998672485,
        -0.9999199509620667,
        -0.9920161366462708
      ],
      "type": "VEC3"
    },
    {
      "bufferView": 3,
      "componentType": 5126,
      "count": 2265,
      "max": [
        0.9993236064910889,
        0.9998969435691833,
        0.9959672093391418,
        1.0
      ],
      "min": [
        -0.9982226490974426,
        -0.9998858571052551,
        -0.9965865015983582,
        -1.0
      ],
      "type": "VEC4"
    },
    {
      "bufferView": 3,
      "byteOffset": 36240,
      "componentType": 5126,
      "count": 2265,
      "max": [
        0.0,
        0.0,
        0.0,
        1.0
      ],
      "min": [
        0.0,
        0.0,
        0.0,
        1.0
      ],
      "type": "VEC4"
    },
    {
      "bufferView": 1,
      "componentType": 5126,
      "count": 2265,
      "max": [
        7.194049835205078,
        7.887919902801514
      ],
      "min": [
        -0.866212010383606,
        -0.628807008266449
      ],
      "type": "VEC2"
    },
    {
      "bufferView": 1,
      "byteOffset": 18120,
      "componentType": 5126,
      "count": 2265,
      "max": [
        1.0,
        0.9790309071540833
      ],
      "min": [
        1.0,
        0.2502143681049347
      ],
      "type": "VEC2"
    },
    {
      "bufferView": 1,
      "byteOffset": 36240,
      "componentType": 5126,
      "count": 2265,
      "max": [
        0.03828125074505806,
        0.561718761920929
      ],
      "min": [
        0.0007812500116415322,
        0.508593738079071
      ],
      "type": "VEC2"
    },
    {
      "bufferView": 1,
      "byteOffset": 54360,
      "componentType": 5126,
      "count": 2265,
      "max": [
        7.194049835205078,
        7.887919902801514
      ],
      "min": [
        -0.866212010383606,
        -0.628807008266449
      ],
      "type": "VEC2"
    },
    {
      "bufferView": 0,
      "componentType": 5125,
      "count": 8238,
      "type": "SCALAR"
    },
    {
      "bufferView": 2,
      "byteOffset": 54360,
      "componentType": 5126,
      "count": 4026,
      "max": [
        0.6632832288742065,
        0.9081259965896606,
        2.039421796798706
      ],
      "min": [
        -0.7715838551521301,
        -0.9182677268981934,
        -0.007980890572071075
      ],
      "type": "VEC3"
    },
    {
      "bufferView": 2,
      "byteOffset": 102672,
      "componentType": 5126,
      "count": 4026,
      "max": [
        0.9999109506607056,
        0.9990289211273193,
        0.9585978984832764
      ],
      "min": [
        -0.9999855160713196,
        -0.9979190826416016,
        -0.9998528361320496
      ],
      "type": "VEC3"
    },
    {
      "bufferView": 3,
      "byteOffset": 72480,
      "componentType": 5126,
      "count": 4026,
      "max": [
        0.9993667006492615,
        0.9995956420898438,
        0.9997804164886475,
        1.0
      ],
      "min": [
        -0.9996225237846375,
        -0.9998560547828674,
        -0.9998076558113098,
        -1.0
      ],
      "type": "VEC4"
    },
    {
      "bufferView": 3,
      "byteOffset": 136896,
      "componentType": 5126,
      "count": 4026,
      "max": [
        0.0,
        0.0,
        0.0,
        1.0
      ],
      "min": [
        0.0,
        0.0,
        0.0,
        1.0
      ],
      "type": "VEC4"
    },
    {
      "bufferView": 1,
      "byteOffset": 72480,
      "componentType": 5126,
      "count": 4026,
      "max": [
        1.0,
        1.0
      ],
      "min": [
        0.0,
        -0.07844951003789902
      ],
      "type": "VEC2"
    },
    {
      "bufferView": 1,
      "byteOffset": 104688,
      "componentType": 5126,
      "count": 4026,
      "max": [
        1.0,
        0.9966747164726257
      ],
      "min": [
        1.0,
        0.42473655939102173
      ],
      "type": "VEC2"
    },
    {
      "bufferView": 1,
      "byteOffset": 136896,
      "componentType": 5126,
      "count": 4026,
      "max": [
        0.991406261920929,
        0.577343761920929
      ],
      "min": [
        0.0007812500116415322,
        0.0007812500116415322
      ],
      "type": "VEC2"
    },
    {
      "bufferView": 1,
      "byteOffset": 169104,
      "componentType": 5126,
      "count": 4026,
      "max": [
        1.0,
        1.0
      ],
      "min": [
        0.0,
        -0.07844951003789902
      ],
      "type": "VEC2"
    },
    {
      "bufferView": 0,
      "byteOffset": 32952,
      "componentType": 5125,
      "count": 11529,
      "type": "SCALAR"
    },
    {
      "bufferView": 2,
      "byteOffset": 150984,
      "componentType": 5126,
      "count": 1020,
      "max": [
        0.6703721284866333,
        0.9318212270736694,
        2.024935007095337
      ],
      "min": [
        -0.7279714941978455,
        -0.9115620851516724,
        -0.07684279978275299
      ],
      "type": "VEC3"
    },
    {
      "bufferView": 2,
      "byteOffset": 163224,
      "componentType": 5126,
      "count": 1020,
      "max": [
        0.9989075660705566,
        0.9995197653770447,
        0.760752260684967
      ],
      "min": [
        -0.9985014796257019,
        -0.9988090991973877,
        -0.705994188785553
      ],
      "type": "VEC3"
    },
    {
      "bufferView": 3,
      "byteOffset": 201312,
      "componentType": 5126,
      "count": 1020,
      "max": [
        0.9757004976272583,
        0.9995951652526855,
        0.9996842741966248,
        1.0
      ],
      "min": [
        -0.9712783098220825,
        -0.9872693419456482,
        -0.9999022483825684,
        -1.0
      ],
      "type": "VEC4"
    },
    {
      "bufferView": 3,
      "byteOffset": 217632,
      "componentType": 5126,
      "count": 1020,
      "max": [
        0.0,
        0.0,
        0.0,
        1.0
      ],
      "min": [
        0.0,
        0.0,
        0.0,
        1.0
      ],
      "type": "VEC4"
    },
    {
      "bufferView": 1,
      "byteOffset": 201312,
      "componentType": 5126,
      "count": 1020,
      "max": [
        1.0,
        1.0
      ],
      "min": [
        0.0,
        0.0
      ],
      "type": "VEC2"
    },
    {
      "bufferView": 1,
      "byteOffset": 209472,
      "componentType": 5126,
      "count": 1020,
      "max": [
        1.0,
        0.9204838275909424
      ],
      "min": [
        0.0,
        0.32705503702163696
      ],
      "type": "VEC2"
    },
    {
      "bufferView": 1,
      "byteOffset": 217632,
      "componentType": 5126,
      "count": 1020,
      "max": [
        0.9601562023162842,
        0.42109373211860657
      ],
      "min": [
        0.0007812500116415322,
        0.0007812500116415322
      ],
      "type": "VEC2"
    },
    {
      "bufferView": 1,
      "byteOffset": 225792,
      "componentType": 5126,
      "count": 1020,
      "max": [
        1.0,
        1.0
      ],
      "min": [
        0.0,
        0.0
      ],
      "type": "VEC2"
    },
    {
      "bufferView": 0,
      "byteOffset": 79068,
      "componentType": 5125,
      "count": 2880,
      "type": "SCALAR"
    }
  ],
  "asset": {
    "extras": {
      "author": "Valery.Li (https://sketchfab.com/Valery.Li)",
      "license": "CC-BY-4.0 (http://creativecommons.org/licenses/by/4.0/)",
      "source": "https://sketchfab.com/3d-models/pond-weed-b34ed521c5bb45ca9191b6213e1830d6",
      "title": "Pond Weed"
    },
    "generator": "Sketchfab-14.7.0",
    "version": "2.0"
  },
  "bufferViews": [
    {
      "buffer": 0,
      "byteLength": 90588,
      "name": "floatBufferViews",
      "target": 34963
    },
    {
      "buffer": 0,
      "byteLength": 233952,
      "byteOffset": 90588,
      "byteStride": 8,
      "name": "floatBufferViews",
      "target": 34962
    },
    {
      "buffer": 0,
      "byteLength": 175464,
      "byteOffset": 324540,
      "byteStride": 12,
      "name": "floatBufferViews",
      "target": 34962
    },
    {
      "buffer": 0,
      "byteLength": 233952,
      "byteOffset": 500004,
      "byteStride": 16,
      "name": "floatBufferViews",
      "target": 34962
    }
  ],
  "buffers": [
    {
      "byteLength": 733956,
      "uri": "scene.bin"
    }
  ],
  "extensionsRequired": [
    "KHR_materials_pbrSpecularGlossiness"
  ],
  "extensionsUsed": [
    "KHR_materials_pbrSpecularGlossiness"
  ],
  "images": [
    {
      "uri": "textures/FrondStem_Mat_diffuse.png"
    },
    {
      "uri": "textures/FrondStem_Mat_specularGlossiness.png"
    },
    {
      "uri": "textures/FrondStem_Mat_normal.png"
    },
    {
      "uri": "textures/PondWeedLeaflets_Mat_diffuse.png"
    },
    {
      "uri": "textures/PondWeedLeaflets_Mat_specularGlossiness.png"
    },
    {
      "uri": "textures/PondWeedLeaflets_Mat_normal.png"
    },
    {
      "uri": "textures/PondWeed_Med_Mat_diffuse.png"
    },
    {
      "uri": "textures/PondWeed_Med_Mat_specularGlossiness.png"
    },
    {
      "uri": "textures/PondWeed_Med_Mat_normal.png"
    }
  ],
  "materials": [
    {
      "alphaCutoff": 0.12038131925735392,
      "alphaMode": "MASK",
      "doubleSided": true,
      "extensions": {
        "KHR_materials_pbrSpecularGlossiness": {
          "diffuseFactor": [
            1.0,
            1.0,
            1.0,
            1.0
          ],
          "diffuseTexture": {
            "index": 0
          },
          "glossinessFactor": 0.042294850537622566,
          "specularFactor": [
            1.0,
            1.0,
            1.0
          ],
          "specularGlossinessTexture": {
            "index": 1
          }
        }
      },
      "name": "FrondStem_Mat",
      "normalTexture": {
        "index": 2
      }
    },
    {
      "alphaCutoff": 0.236191196011264,
      "alphaMode": "MASK",
      "doubleSided": true,
      "extensions": {
        "KHR_materials_pbrSpecularGlossiness": {
          "diffuseFactor": [
            1.0,
            1.0,
            1.0,
            1.0
          ],
          "diffuseTexture": {
            "index": 3
          },
          "glossinessFactor": 0.042294850537622566,
          "specularFactor": [
            1.0,
            1.0,
            1.0
          ],
          "specularGlossinessTexture": {
            "index": 4
          }
        }
      },
      "name": "PondWeedLeaflets_Mat",
      "normalTexture": {
        "index": 5
      }
    },
    {
      "alphaCutoff": 0.24228645268252244,
      "alphaMode": "MASK",
      "doubleSided": true,
      "extensions": {
        "KHR_materials_pbrSpecularGlossiness": {
          "diffuseFactor": [
            1.0,
            1.0,
            1.0,
            1.0
          ],
          "diffuseTexture": {
            "index": 6
          },
          "glossinessFactor": 0.042294850537622566,
          "specularFactor": [
            1.0,
            1.0,
            1.0
          ],
          "specularGlossinessTexture": {
            "index": 7
          }
        }
      },
      "name": "PondWeed_Med_Mat",
      "normalTexture": {
        "index": 8
      }
    }
  ],
  "meshes": [
    {
      "name": "LOD0_FrondStem_Mat_0",
      "primitives": [
        {
          "attributes": {
            "COLOR_0": 3,
            "NORMAL": 1,
            "POSITION": 0,
            "TANGENT": 2,
            "TEXCOORD_0": 4,
            "TEXCOORD_1": 5,
            "TEXCOORD_2": 6,
            "TEXCOORD_3": 7
          },
          "indices": 8,
          "material": 0,
          "mode": 4
        }
      ]
    },
    {
      "name": "LOD0_PondWeedLeaflets_Mat_0",
      "primitives": [
        {
          "attributes": {
            "COLOR_0": 12,
            "NORMAL": 10,
            "POSITION": 9,
            "TANGENT": 11,
            "TEXCOORD_0": 13,
            "TEXCOORD_1": 14,
            "TEXCOORD_2": 15,
            "TEXCOORD_3": 16
          },
          "indices": 17,
          "material": 1,
          "mode": 4
        }
      ]
    },
    {
      "name": "LOD0_PondWeed_Med_Mat_0",
      "primitives": [
        {
          "attributes": {
            "COLOR_0": 21,
            "NORMAL": 19,
            "POSITION": 18,
            "TANGENT": 20,
            "TEXCOORD_0": 22,
            "TEXCOORD_1": 23,
            "TEXCOORD_2": 24,
            "TEXCOORD_3": 25
          },
          "indices": 26,
          "material": 2,
          "mode": 4
        }
      ]
    }
  ],
  "nodes": [
    {
      "children": [
        1
      ],
      "matrix": [
        1.0,
        0.0,
        0.0,
        0.0,
        0.0,
        -1.0,
        -4.440892098500626e-16,
        0.0,
        0.0,
        4.440892098500626e-16,
        -1.0,
        0.0,
        0.0,
        0.0,
        0.0,
        1.0
      ],
      "name": "Sketchfab_model"
    },
    {
      "children": [
        2
      ],
      "matrix": [
        0.009999999776482582,
        0.0,
        0.0,
        0.0,
        0.0,
        0.0,
        0.009999999776482582,
        0.0,
        0.0,
        -0.009999999776482582,
        0.0,
        0.0,
        0.0,
        0.0,
        0.0,
        1.0
      ],
      "name": "PondWeed_Med.fbx"
    },
    {
      "children": [
        3
      ],
      "name": "RootNode"
    },
    {
      "children": [
        4
      ],
      "name": "PondWeed_Med"
    },
    {
      "children": [
        5,
        6,
        7
      ],
      "name": "LOD0"
    },
    {
      "mesh": 0,
      "name": "LOD0_FrondStem_Mat_0"
    },
    {
      "mesh": 1,
      "name": "LOD0_PondWeedLeaflets_Mat_0"
    },
    {
      "mesh": 2,
      "name": "LOD0_PondWeed_Med_Mat_0"
    }
  ],
  "samplers": [
    {
      "magFilter": 9729,
      "minFilter": 9987,
      "wrapS": 10497,
      "wrapT": 10497
    }
  ],
  "scene": 0,
  "scenes": [
    {
      "name": "Sketchfab_Scene",
      "nodes": [
        0
      ]
    }
  ],
  "textures": [
    {
      "sampler": 0,
      "source": 0
    },
    {
      "sampler": 0,
      "source": 1
    },
    {
      "sampler": 0,
      "source": 2
    },
    {
      "sampler": 0,
      "source": 3
    },
    {
      "sampler": 0,
      "source": 4
    },
    {
      "sampler": 0,
      "source": 5
    },
    {
      "sampler": 0,
      "source": 6
    },
    {
      "sampler": 0,
      "source": 7
    },
    {
      "sampler": 0,
      "source": 8
    }
  ]
}
